# Blender 4.3.2
# www.blender.org
mtllib Planks2.mtl
o Cube.001
v 2.484966 0.045435 -1.734976
v 2.484966 -0.045435 -1.734976
v 2.428169 0.045435 1.826708
v 2.428169 -0.045435 1.826708
v 2.000626 0.045435 -1.742700
v 2.000626 -0.045435 -1.742700
v 1.943829 0.045435 1.818985
v 1.943829 -0.045435 1.818985
v 3.020997 0.045435 -1.758204
v 3.020997 -0.045435 -1.758204
v 3.100008 0.045435 1.790081
v 3.100008 -0.045435 1.790081
v 2.518237 0.045435 -1.746311
v 2.518237 -0.045435 -1.746311
v 2.597247 0.045435 1.801974
v 2.597247 -0.045435 1.801974
v 3.552092 0.045435 -1.799208
v 3.552092 -0.045435 -1.799208
v 3.669249 0.045435 1.750078
v 3.669249 -0.045435 1.750078
v 3.068166 0.045435 -1.782867
v 3.068166 -0.045435 -1.782867
v 3.185323 0.045435 1.766420
v 3.185323 -0.045435 1.766420
v 1.993082 -0.045435 -1.291683
v 2.477422 0.045435 -1.304165
v 1.993082 0.045435 -1.291683
v 2.477422 -0.045435 -1.304165
v 2.528357 -0.045435 -1.310814
v 3.031117 0.045435 -1.330303
v 2.528357 0.045435 -1.310814
v 3.031117 -0.045435 -1.330303
v 3.083158 -0.045435 -1.328698
v 3.567084 0.045435 -1.345039
v 3.083158 0.045435 -1.328698
v 3.567084 -0.045435 -1.345039
v 2.535563 -0.045435 -0.987172
v 3.038324 0.045435 -1.006661
v 2.535563 0.045435 -0.987172
v 3.038324 -0.045435 -1.006661
v 1.987951 -0.045435 -0.969918
v 2.472291 0.045435 -0.982400
v 1.987951 0.045435 -0.969918
v 2.472291 -0.045435 -0.982400
v 3.093711 -0.045435 -1.008986
v 3.577637 0.045435 -1.025327
v 3.093711 0.045435 -1.008986
v 3.577637 -0.045435 -1.025327
v 3.173104 -0.045435 1.396243
v 3.657030 0.045435 1.379901
v 3.173104 0.045435 1.396243
v 3.657030 -0.045435 1.379901
v 2.589079 -0.045435 1.412387
v 3.091840 0.045435 1.396695
v 2.589079 0.045435 1.412387
v 3.091840 -0.045435 1.396695
v 1.949640 -0.045435 1.439414
v 2.433980 0.045435 1.420552
v 1.949640 0.045435 1.439415
v 2.433980 -0.045435 1.420552
v 3.162037 0.045435 1.060955
v 3.645962 -0.045435 1.044613
v 3.162037 -0.045435 1.060955
v 3.645962 0.045435 1.044613
v 2.581748 0.045435 1.083160
v 3.084509 -0.045435 1.067468
v 2.581748 -0.045435 1.083160
v 3.084509 0.045435 1.067469
v 1.954971 0.045435 1.105113
v 2.439311 -0.045435 1.086250
v 1.954971 -0.045435 1.105113
v 2.439311 0.045435 1.086250
v 2.472291 -0.116534 -0.982400
v 2.477422 -0.116534 -1.304165
v 1.993082 -0.116534 -1.291683
v 3.038324 -0.116534 -1.006661
v 3.031117 -0.116534 -1.330303
v 2.528357 -0.116534 -1.310814
v 3.577637 -0.116534 -1.025327
v 3.567084 -0.116534 -1.345039
v 3.083158 -0.116534 -1.328698
v 2.535563 -0.116534 -0.987172
v 1.987951 -0.116534 -0.969918
v 3.093711 -0.116534 -1.008986
v 3.162037 -0.116534 1.060955
v 3.173104 -0.116534 1.396243
v 3.657030 -0.116534 1.379901
v 2.581748 -0.116534 1.083160
v 2.589079 -0.116534 1.412387
v 3.091840 -0.116534 1.396695
v 1.954971 -0.116534 1.105113
v 1.949640 -0.116534 1.439414
v 2.433980 -0.116534 1.420552
v 3.645962 -0.116534 1.044613
v 3.084509 -0.116534 1.067468
v 2.439311 -0.116534 1.086250
v 3.656723 -0.045435 -1.023840
v 3.652555 -0.045435 -1.343699
v 1.938398 -0.045435 -1.292555
v 1.933266 -0.045435 -0.970790
v 1.900286 -0.045435 1.108039
v 1.894955 -0.045435 1.442340
v 3.710865 -0.045435 1.378690
v 3.706494 -0.045435 1.043249
v 3.656723 -0.116534 -1.023840
v 3.652555 -0.116534 -1.343699
v 1.938398 -0.116534 -1.292555
v 1.933266 -0.116534 -0.970790
v 1.900286 -0.116534 1.108039
v 1.894955 -0.116534 1.442340
v 3.710865 -0.116534 1.378690
v 3.706494 -0.116534 1.043249
vn -0.0000 1.0000 -0.0000
vn -0.0159 -0.0000 0.9999
vn -0.9999 -0.0000 -0.0167
vn -0.0000 -1.0000 -0.0000
vn 0.9999 -0.0000 0.0143
vn 0.0159 -0.0000 -0.9999
vn 0.0236 -0.0000 0.9997
vn -0.9997 -0.0000 0.0232
vn 0.9998 -0.0000 -0.0208
vn -0.0236 -0.0000 -0.9997
vn 0.0337 -0.0000 0.9994
vn -0.9995 -0.0000 0.0330
vn 0.9995 -0.0000 -0.0330
vn -0.0337 -0.0000 -0.9994
vn 0.9998 -0.0000 0.0175
vn -0.9999 -0.0000 -0.0159
vn 0.9997 -0.0000 -0.0236
vn -0.9998 -0.0000 0.0223
vn 0.9998 -0.0000 -0.0223
vn 0.9999 -0.0000 0.0159
vn -0.0387 -0.0000 -0.9992
vn -0.9998 -0.0000 0.0210
vn -0.0258 -0.0000 -0.9997
vn -0.9999 -0.0000 -0.0153
vn 0.0157 -0.0000 -0.9999
vn 0.0387 -0.0000 0.9992
vn 0.0258 -0.0000 0.9997
vn 0.0752 -0.0000 0.9972
vn 0.0312 -0.0000 0.9995
vn 0.0419 -0.0000 0.9991
vn 0.0389 -0.0000 0.9992
vn -0.0312 -0.0000 -0.9995
vn -0.0389 -0.0000 -0.9992
vn -0.0188 -0.0000 0.9998
vn 0.9999 -0.0000 -0.0130
vn -0.0534 -0.0000 -0.9986
vn 0.0225 -0.0000 0.9997
vn 0.0534 -0.0000 0.9986
vn -0.0225 -0.0000 -0.9997
vn 0.0308 -0.0000 -0.9995
vn -0.1294 -0.0000 -0.9916
vn 0.0217 -0.0000 0.9998
vn -0.0526 -0.0000 -0.9986
vn -0.0837 -0.0000 -0.9965
vn 0.0056 -0.0000 1.0000
vt 0.900448 0.255132
vt 0.900448 0.129463
vt 0.994991 0.129463
vt 0.994991 0.255132
vt 0.066599 0.794814
vt 0.066599 0.771240
vt 0.192171 0.771240
vt 0.192171 0.794814
vt 0.872290 0.858673
vt 0.872290 0.835099
vt 0.994991 0.835099
vt 0.994991 0.858673
vt 0.214139 0.726012
vt 0.088470 0.726012
vt 0.088470 0.631469
vt 0.214139 0.631469
vt 0.900487 0.882248
vt 0.900487 0.858673
vt 0.994991 0.858673
vt 0.994991 0.882248
vt 0.066579 0.771240
vt 0.066579 0.747665
vt 0.192171 0.747665
vt 0.192171 0.771240
vt 0.899807 0.129463
vt 0.899807 -0.005009
vt 0.994991 -0.005009
vt 0.994991 0.129463
vt 0.187819 0.490086
vt 0.187819 0.466512
vt 0.322286 0.466512
vt 0.322286 0.490086
vt 0.877087 0.976546
vt 0.877087 0.952971
vt 0.994991 0.952971
vt 0.994991 0.976546
vt 0.187813 0.371328
vt 0.322286 0.371328
vt 0.322286 0.466512
vt 0.187813 0.466512
vt 0.899827 0.952971
vt 0.899827 0.929397
vt 0.994991 0.929397
vt 0.373721 0.819411
vt 0.373721 0.795836
vt 0.508182 0.795836
vt 0.508182 0.819411
vt 0.898904 0.371328
vt 0.898904 0.255132
vt 0.994991 0.371328
vt 0.071618 0.490990
vt 0.071618 0.467415
vt 0.187813 0.467415
vt 0.187813 0.490990
vt 0.877108 0.929397
vt 0.877108 0.905822
vt 0.994991 0.905822
vt 0.994991 0.929397
vt 0.071617 0.371328
vt 0.187813 0.371328
vt 0.187813 0.467415
vt 0.071617 0.467415
vt 0.898906 0.905822
vt 0.898906 0.882248
vt 0.994991 0.905822
vt 0.075974 0.818389
vt 0.075974 0.794814
vt 0.192171 0.794814
vt 0.192171 0.818389
vt 0.071240 0.882248
vt 0.071240 0.858674
vt 0.193928 0.858673
vt 0.193928 0.882248
vt 0.457696 0.754207
vt 0.332027 0.754207
vt 0.332027 0.631469
vt 0.457696 0.631469
vt 0.788829 0.858673
vt 0.788828 0.835099
vt 0.070867 0.255132
vt 0.070867 0.129464
vt 0.193604 0.129464
vt 0.193604 0.255132
vt 0.074404 0.952971
vt 0.074404 0.929397
vt 0.192319 0.929397
vt 0.192318 0.952971
vt 0.322286 0.371328
vt 0.456758 0.371328
vt 0.456758 0.489267
vt 0.322286 0.489267
vt 0.793127 0.976546
vt 0.793127 0.952971
vt 0.074218 0.129464
vt 0.074218 -0.005009
vt 0.192156 -0.005009
vt 0.192157 0.129464
vt 0.073718 0.905822
vt 0.073718 0.882248
vt 0.191605 0.882248
vt 0.191605 0.905822
vt 0.214139 0.747665
vt 0.332027 0.631469
vt 0.332027 0.747665
vt 0.794124 0.929397
vt 0.794124 0.905822
vt 0.073701 0.371328
vt 0.073701 0.255132
vt 0.191590 0.255132
vt 0.191590 0.371328
vt 0.255051 0.976546
vt 0.255051 0.952971
vt 0.276286 0.929397
vt 0.276286 0.952971
vt 0.276141 -0.005009
vt 0.276141 0.129464
vt 0.252369 0.858673
vt 0.252369 0.835099
vt 0.277381 0.858673
vt 0.277381 0.882248
vt 0.542293 0.751243
vt 0.544669 0.834695
vt 0.530486 0.835099
vt 0.528110 0.751646
vt 0.277090 0.129464
vt 0.277090 0.255132
vt 0.256856 0.929397
vt 0.256856 0.905822
vt 0.274591 0.882248
vt 0.274591 0.905822
vt 0.864606 0.976546
vt 0.980802 0.976546
vt 0.980802 0.994991
vt 0.864606 0.994991
vt 0.274578 0.255132
vt 0.274578 0.371328
vt 0.073747 0.929397
vt 0.073747 0.905822
vt 0.169830 0.905822
vt 0.169830 0.929397
vt 0.811877 0.905822
vt 0.811877 0.882248
vt 0.709518 0.976546
vt 0.843978 0.976546
vt 0.843978 0.994991
vt 0.709518 0.994991
vt 0.811873 0.371328
vt 0.811873 0.255132
vt 0.074486 0.976546
vt 0.074486 0.952971
vt 0.169642 0.952971
vt 0.169642 0.976546
vt 0.814410 0.952971
vt 0.814410 0.929397
vt 0.542296 0.976546
vt 0.667888 0.976546
vt 0.667888 0.994991
vt 0.542296 0.994991
vt 0.814373 0.129463
vt 0.814373 -0.005009
vt 0.071141 0.858673
vt 0.071141 0.835099
vt 0.165656 0.835099
vt 0.165656 0.858673
vt 0.813783 0.882248
vt 0.813783 0.858673
vt 0.994991 0.994991
vt 0.813709 0.255132
vt 0.813709 0.129463
vt 0.457696 0.747665
vt 0.994991 0.631469
vt 0.994991 0.747665
vt 0.456758 0.505801
vt 0.456758 0.371328
vt 0.994991 0.371328
vt 0.994991 0.505801
vt 0.458372 0.631469
vt 0.458372 0.505801
vt 0.994991 0.631469
vt 0.709539 0.747853
vt 0.843985 0.750547
vt 0.842303 0.834514
vt 0.707857 0.831821
vt 0.667910 0.747665
vt 0.670286 0.831117
vt 0.864608 0.751342
vt 0.980803 0.752028
vt 0.980312 0.835015
vt 0.864118 0.834328
vt 0.327780 0.506111
vt 0.443976 0.505835
vt 0.444183 0.592865
vt 0.327987 0.593142
vt 0.163907 0.505801
vt 0.298370 0.507380
vt 0.297367 0.592807
vt 0.162904 0.591229
vt 0.206359 0.747665
vt 0.332027 0.747665
vt 0.332028 0.834404
vt 0.206359 0.834404
vt 0.216324 0.976546
vt 0.350791 0.976546
vt 0.350791 0.994991
vt 0.216324 0.994991
vt 0.388367 0.976546
vt 0.513939 0.976546
vt 0.513939 0.994991
vt 0.388367 0.994991
vt 0.078317 0.976546
vt 0.194512 0.976546
vt 0.194512 0.994991
vt 0.078317 0.994991
vt 0.177089 0.593142
vt 0.293284 0.593142
vt 0.293284 0.611587
vt 0.177089 0.611587
vt 0.369728 0.489267
vt 0.456758 0.489267
vt 0.456758 0.503455
vt 0.369728 0.503455
vt 0.323905 0.593142
vt 0.458372 0.593142
vt 0.458372 0.611587
vt 0.323905 0.611587
vt 0.327987 0.611587
vt 0.444183 0.611587
vt 0.444183 0.630032
vt 0.327987 0.630032
vt 0.024365 0.611587
vt 0.149937 0.611587
vt 0.149937 0.630032
vt 0.024365 0.630032
vt 0.164114 0.611587
vt 0.298574 0.611587
vt 0.298574 0.630032
vt 0.164114 0.630032
vt 0.088547 0.726012
vt 0.214139 0.726012
vt 0.214139 0.744457
vt 0.088547 0.744457
vt 0.064129 0.994991
vt 0.064129 0.976546
vt 0.075874 0.558230
vt 0.162904 0.558230
vt 0.162904 0.576676
vt 0.075874 0.576676
vt 0.076188 0.593142
vt 0.162901 0.593142
vt 0.162901 0.611587
vt 0.076188 0.611587
vt 0.005009 0.631469
vt 0.088470 0.631469
vt 0.088470 0.649914
vt 0.005009 0.649914
vt 0.005484 0.649914
vt 0.088470 0.649914
vt 0.088470 0.668360
vt 0.005484 0.668360
vt 0.192171 0.834404
vt 0.192171 0.747665
vt 0.074367 0.744457
vt 0.074367 0.726012
vt 0.162901 0.611587
vt 0.162901 0.593142
vt 0.508182 0.833599
vt 0.424695 0.833599
vt 0.424695 0.819411
vt 0.508182 0.819411
vt 0.528116 0.976546
vt 0.528116 0.994991
vt 0.458165 0.505801
vt 0.458372 0.592831
vt 0.458372 0.630032
vt 0.994991 0.752112
vt 0.994501 0.835099
vt 0.341708 0.819411
vt 0.424695 0.819411
vt 0.424695 0.833599
vt 0.341708 0.833599
vt 0.528116 0.994991
vt 0.528116 0.976546
vt 0.322286 0.504275
vt 0.235547 0.504275
vt 0.235547 0.490086
vt 0.322286 0.490086
vt 0.162904 0.536423
vt 0.162281 0.558230
vt 0.079301 0.557059
vt 0.078919 0.536423
vt 0.457162 0.756961
vt 0.457696 0.794534
vt 0.373722 0.795836
vt 0.373721 0.754207
vt 0.147460 0.504275
vt 0.150214 0.492833
vt 0.235547 0.496975
vt 0.234199 0.504275
vt 0.369728 0.500807
vt 0.351282 0.500807
vt 0.351282 0.489267
vt 0.369728 0.489267
vt 0.351282 0.493465
vt 0.332837 0.500807
vt 0.332837 0.493465
vt 0.106837 0.829830
vt 0.104084 0.818389
vt 0.190823 0.818389
vt 0.192171 0.825688
vt 0.162904 0.536423
vt 0.075881 0.535266
vt 0.077470 0.505872
vt 0.162904 0.505801
s 0
usemtl Material
f 58/1/1 59/2/1 7/3/1 3/4/1
f 4/5/2 3/6/2 7/7/2 8/8/2
f 25/9/3 27/10/3 5/11/3 6/12/3
f 57/13/4 60/14/4 4/15/4 8/16/4
f 60/17/5 58/18/5 3/19/5 4/20/5
f 6/21/6 5/22/6 1/23/6 2/24/6
f 54/25/1 55/26/1 15/27/1 11/28/1
f 12/29/7 11/30/7 15/31/7 16/32/7
f 29/33/8 31/34/8 13/35/8 14/36/8
f 53/37/4 56/38/4 12/39/4 16/40/4
f 56/41/9 54/42/9 11/43/9 12/35/9
f 14/44/10 13/45/10 9/46/10 10/47/10
f 50/48/1 51/49/1 23/4/1 19/50/1
f 20/51/11 19/52/11 23/53/11 24/54/11
f 33/55/12 35/56/12 21/57/12 22/58/12
f 49/59/4 52/60/4 20/61/4 24/62/4
f 52/63/13 50/64/13 19/20/13 20/65/13
f 22/66/14 21/67/14 17/68/14 18/69/14
f 2/70/15 1/71/15 26/72/15 28/73/15
f 6/74/4 2/75/4 28/76/4 25/77/4
f 41/78/16 43/79/16 27/10/16 25/9/16
f 1/80/1 5/81/1 27/82/1 26/83/1
f 10/84/17 9/85/17 30/86/17 32/87/17
f 14/88/4 10/89/4 32/90/4 29/91/4
f 37/92/18 39/93/18 31/34/18 29/33/18
f 9/94/1 13/95/1 31/96/1 30/97/1
f 18/98/13 17/99/13 34/100/13 36/101/13
f 22/102/4 18/16/4 36/103/4 33/104/4
f 45/105/12 47/106/12 35/56/12 33/55/12
f 17/107/1 21/108/1 35/109/1 34/110/1
f 67/111/18 65/112/18 39/93/18 37/92/18
f 32/87/19 30/86/19 38/113/19 40/114/19
f 30/97/1 31/96/1 39/115/1 38/116/1
f 71/117/16 69/118/16 43/79/16 41/78/16
f 28/73/20 26/72/20 42/119/20 44/120/20
f 75/121/4 83/122/4 108/123/4 107/124/4
f 26/83/1 27/82/1 43/125/1 42/126/1
f 63/127/12 61/128/12 47/106/12 45/105/12
f 36/101/13 34/100/13 46/129/13 48/130/13
f 33/131/14 36/132/14 80/133/14 81/134/14
f 34/110/1 35/109/1 47/135/1 46/136/1
f 24/137/12 23/138/12 51/139/12 49/140/12
f 62/141/13 64/142/13 50/64/13 52/63/13
f 29/143/21 32/144/21 77/145/21 78/146/21
f 64/147/1 61/148/1 51/49/1 50/48/1
f 16/149/22 15/150/22 55/151/22 53/152/22
f 66/153/19 68/154/19 54/42/19 56/41/19
f 25/155/23 28/156/23 74/157/23 75/158/23
f 68/159/1 65/160/1 55/26/1 54/25/1
f 8/161/24 7/162/24 59/163/24 57/164/24
f 70/165/20 72/166/20 58/18/20 60/17/20
f 80/133/25 36/132/25 98/36/25 106/167/25
f 72/168/1 69/169/1 59/2/1 58/1/1
f 46/136/1 47/135/1 61/148/1 64/147/1
f 45/170/4 48/77/4 62/171/4 63/172/4
f 48/130/13 46/129/13 64/142/13 62/141/13
f 49/140/12 51/139/12 61/128/12 63/127/12
f 38/116/1 39/115/1 65/160/1 68/159/1
f 37/173/4 40/174/4 66/175/4 67/176/4
f 40/114/19 38/113/19 68/154/19 66/153/19
f 53/152/18 55/151/18 65/112/18 67/111/18
f 42/126/1 43/125/1 69/169/1 72/168/1
f 41/177/4 44/178/4 70/176/4 71/179/4
f 44/120/20 42/119/20 72/166/20 70/165/20
f 57/164/16 59/163/16 69/118/16 71/117/16
f 78/180/4 77/181/4 76/182/4 82/183/4
f 75/121/4 74/184/4 73/185/4 83/122/4
f 81/186/4 80/187/4 79/188/4 84/189/4
f 85/190/4 94/191/4 87/192/4 86/193/4
f 88/194/4 95/195/4 90/196/4 89/197/4
f 91/198/4 96/199/4 93/200/4 92/201/4
f 40/202/26 37/203/26 82/204/26 76/205/26
f 44/206/27 41/207/27 83/208/27 73/209/27
f 48/210/11 45/211/11 84/212/11 79/213/11
f 73/209/28 82/204/28 37/203/28 44/206/28
f 52/214/11 49/215/11 86/216/11 87/217/11
f 62/218/1 52/219/1 103/220/1 104/221/1
f 56/222/29 53/223/29 89/224/29 90/225/29
f 63/226/14 62/227/14 94/228/14 85/229/14
f 74/184/4 78/180/4 82/183/4 73/185/4
f 76/205/30 84/212/30 45/211/30 40/202/30
f 60/230/31 57/231/31 92/232/31 93/233/31
f 67/234/32 66/235/32 95/236/32 88/237/32
f 77/181/4 81/186/4 84/189/4 76/182/4
f 71/238/33 70/239/33 96/240/33 91/241/33
f 48/210/34 79/213/34 105/242/34 97/243/34
f 104/244/35 103/245/35 111/246/35 112/247/35
f 102/248/16 101/249/16 109/250/16 110/251/16
f 100/252/16 99/253/16 107/254/16 108/255/16
f 98/256/35 97/257/35 105/258/35 106/259/35
f 91/198/4 92/201/4 110/260/4 109/261/4
f 71/238/36 91/241/36 109/262/36 101/263/36
f 52/214/37 87/217/37 111/264/37 103/265/37
f 41/266/1 25/267/1 99/268/1 100/269/1
f 92/232/38 57/231/38 102/234/38 110/237/38
f 83/208/2 41/207/2 100/270/2 108/271/2
f 87/192/4 94/191/4 112/272/4 111/273/4
f 94/228/39 62/227/39 104/224/39 112/274/39
f 79/188/4 80/187/4 106/275/4 105/276/4
f 36/277/1 48/278/1 97/279/1 98/280/1
f 25/155/6 75/158/6 107/281/6 99/282/6
f 57/283/1 71/284/1 101/285/1 102/286/1
f 40/287/1 45/288/1 33/289/1 32/290/1
f 32/144/40 33/131/40 81/134/40 77/145/40
f 44/291/1 37/292/1 29/293/1 28/294/1
f 28/156/41 29/143/41 78/146/41 74/157/41
f 70/295/4 67/296/4 53/297/4 60/298/4
f 70/299/42 96/300/42 88/301/42 67/302/42
f 60/303/43 53/300/43 89/304/43 93/305/43
f 88/306/1 96/307/1 93/308/1 89/309/1
f 49/310/1 63/311/1 66/312/1 56/313/1
f 95/236/44 66/235/44 63/226/44 85/229/44
f 86/216/45 49/215/45 56/222/45 90/225/45
f 85/190/4 86/193/4 90/196/4 95/195/4
