# Blender 4.3.2
# www.blender.org
mtllib Fences.mtl
o Fence3
v -0.155679 -0.007998 5.526095
v -0.155679 2.992002 5.526095
v -0.155679 -0.007998 5.837453
v -0.155679 2.992002 5.837453
v 0.155679 -0.007998 5.526095
v 0.155679 2.992002 5.526095
v 0.155679 -0.007998 5.837453
v 0.155679 2.992002 5.837453
v -0.155679 2.920316 5.526095
v -0.155679 2.920316 5.837453
v 0.155679 2.920316 5.837453
v 0.155679 2.920316 5.526095
v -0.155679 0.073609 5.837453
v 0.155679 0.073609 5.837453
v 0.155679 0.073609 5.526095
v 0.077839 2.645377 5.837453
v 0.000000 2.645377 5.837453
v -0.077839 2.645377 5.837453
v -0.155679 0.073609 5.526095
v -0.155679 0.401698 5.526095
v -0.155679 0.401698 5.837453
v 0.155679 0.401698 5.837453
v 0.155679 0.401698 5.526095
v 0.077839 2.507767 5.837453
v 0.000000 2.507767 5.837453
v -0.077839 2.507767 5.837453
v 0.077839 2.215187 5.837453
v 0.000000 2.215187 5.837453
v -0.155679 0.648298 5.526095
v -0.155679 0.648298 5.837453
v 0.155679 0.648298 5.837453
v 0.155679 0.648298 5.526095
v -0.077839 2.215187 5.837453
v 0.077839 1.889261 5.837453
v 0.000000 1.889261 5.837453
v -0.077839 1.889261 5.837453
v -0.155679 1.157058 5.526095
v -0.155679 1.157058 5.837453
v 0.155679 1.157058 5.837453
v 0.155679 1.157058 5.526095
v 0.077839 1.605881 5.837453
v 0.000000 1.605881 5.837453
v -0.077839 1.605881 5.837453
v -0.155679 1.302693 5.526095
v -0.155679 1.302693 5.837453
v 0.155679 1.302693 5.837453
v 0.155679 1.302693 5.526095
v 0.077839 1.302693 5.837453
v 0.000000 1.302693 5.837453
v -0.077839 1.302693 5.837453
v 0.077839 1.157058 5.837453
v 0.000000 1.157058 5.837453
v -0.155679 1.605881 5.526095
v -0.155679 1.605881 5.837453
v 0.155679 1.605881 5.837453
v 0.155679 1.605881 5.526095
v -0.077839 1.157058 5.837453
v 0.077839 0.648298 5.837453
v 0.000000 0.648298 5.837453
v -0.077839 0.648298 5.837453
v -0.155679 1.889261 5.526095
v -0.155679 1.889261 5.837453
v 0.155679 1.889261 5.837453
v 0.155679 1.889261 5.526095
v 0.077839 0.401698 5.837453
v 0.000000 0.401698 5.837453
v -0.077839 0.401698 5.837453
v -0.155679 2.215187 5.526095
v -0.155679 2.215187 5.837453
v 0.155679 2.215187 5.837453
v 0.155679 2.215187 5.526095
v 0.077839 0.073609 5.837453
v 0.000000 0.073609 5.837453
v -0.077839 0.073609 5.837453
v -0.155679 2.507767 5.526095
v -0.155679 2.507767 5.837453
v 0.155679 2.507767 5.837453
v 0.155679 2.507767 5.526095
v 0.077839 2.920316 5.837453
v 0.000000 2.920316 5.837453
v -0.077839 2.920316 5.837453
v -0.077839 2.992002 5.526095
v 0.000000 2.992002 5.526095
v 0.077839 2.992002 5.526095
v 0.077839 -0.007998 5.526095
v -0.155679 2.645377 5.526095
v -0.155679 2.645377 5.837453
v 0.155679 2.645377 5.837453
v 0.155679 2.645377 5.526095
v 0.000000 -0.007998 5.526095
v -0.077839 -0.007998 5.526095
v 0.077839 2.992002 5.837453
v 0.000000 2.992002 5.837453
v -0.077839 2.992002 5.837453
v -0.077839 -0.007998 5.837453
v 0.000000 -0.007998 5.837453
v 0.077839 -0.007998 5.837453
v -0.155679 -0.007997 9.364688
v -0.155679 2.992003 9.364688
v -0.155679 -0.007997 9.053330
v -0.155679 2.992003 9.053330
v 0.155679 -0.007997 9.364688
v 0.155679 2.992003 9.364688
v 0.155679 -0.007997 9.053330
v 0.155679 2.992003 9.053330
v -0.155679 2.920317 9.364688
v -0.155679 2.920317 9.053330
v 0.155679 2.920317 9.053330
v 0.155679 2.920317 9.364688
v -0.155679 0.073610 9.053330
v 0.155679 0.073610 9.053330
v 0.155679 0.073610 9.364688
v 0.077839 2.645378 9.053330
v 0.000000 2.645378 9.053330
v -0.077839 2.645378 9.053330
v -0.155679 0.073610 9.364688
v -0.155679 0.401698 9.364688
v -0.155679 0.401698 9.053330
v 0.155679 0.401698 9.053330
v 0.155679 0.401698 9.364688
v 0.077839 2.507768 9.053330
v 0.000000 2.507768 9.053330
v -0.077839 2.507768 9.053330
v 0.077839 2.215187 9.053330
v 0.000000 2.215187 9.053330
v -0.155679 0.700633 9.364688
v -0.155679 0.700633 9.053330
v 0.155679 0.700633 9.053330
v 0.155679 0.700633 9.364688
v -0.077839 2.215187 9.053330
v 0.077839 2.037778 9.053330
v 0.000000 2.037778 9.053330
v -0.077839 2.037778 9.053330
v -0.155679 1.157058 9.364688
v -0.155679 1.157058 9.053330
v 0.155679 1.157058 9.053330
v 0.155679 1.157058 9.364688
v 0.077839 1.757352 9.053330
v 0.000000 1.757352 9.053330
v -0.077839 1.757352 9.053330
v -0.155679 1.246924 9.364688
v -0.155679 1.246924 9.053330
v 0.155679 1.246924 9.053330
v 0.155679 1.246924 9.364688
v 0.077839 1.246924 9.053330
v 0.000000 1.246924 9.053330
v -0.077839 1.246924 9.053330
v 0.077839 1.157058 9.053330
v 0.000000 1.157058 9.053330
v -0.155679 1.757352 9.364688
v -0.155679 1.757352 9.053330
v 0.155679 1.757352 9.053330
v 0.155679 1.757352 9.364688
v -0.077839 1.157058 9.053330
v 0.077839 0.700633 9.053330
v 0.000000 0.700633 9.053330
v -0.077839 0.700633 9.053330
v -0.155679 2.037777 9.364688
v -0.155679 2.037778 9.053330
v 0.155679 2.037778 9.053330
v 0.155679 2.037778 9.364688
v 0.077839 0.401698 9.053330
v 0.000000 0.401698 9.053330
v -0.077839 0.401698 9.053330
v -0.155679 2.215187 9.364688
v -0.155679 2.215187 9.053330
v 0.155679 2.215187 9.053330
v 0.155679 2.215187 9.364688
v 0.077839 0.073610 9.053330
v 0.000000 0.073610 9.053330
v -0.077839 0.073610 9.053330
v -0.155679 2.507768 9.364688
v -0.155679 2.507768 9.053330
v 0.155679 2.507768 9.053330
v 0.155679 2.507768 9.364688
v 0.077839 2.920317 9.053330
v 0.000000 2.920317 9.053330
v -0.077839 2.920317 9.053330
v -0.077839 2.992003 9.364688
v 0.000000 2.992003 9.364688
v 0.077839 2.992003 9.364688
v 0.077839 -0.007997 9.364688
v -0.155679 2.645378 9.364688
v -0.155679 2.645378 9.053330
v 0.155679 2.645378 9.053330
v 0.155679 2.645378 9.364688
v 0.000000 -0.007997 9.364688
v -0.077839 -0.007997 9.364688
v 0.077839 2.992003 9.053330
v 0.000000 2.992003 9.053330
v -0.077839 2.992003 9.053330
v -0.077839 -0.007997 9.053330
v 0.000000 -0.007997 9.053330
v 0.077839 -0.007997 9.053330
v 0.000000 1.502138 9.053330
v -0.077839 1.502138 9.053330
v -0.155679 1.502138 9.053330
v 0.155679 1.502138 9.053330
v 0.155679 1.502138 9.364688
v -0.155679 1.502138 9.364688
v 0.077839 1.502138 9.053330
v -0.155679 0.877450 5.837453
v 0.155679 0.877450 5.837453
v 0.155679 0.877450 5.526095
v -0.155679 0.877449 5.526095
v 0.077839 0.877450 5.837453
v 0.000000 0.877450 5.837453
v -0.077839 0.877450 5.837453
vn -1.0000 -0.0000 -0.0000
vn 1.0000 -0.0000 -0.0000
vn -0.0000 1.0000 -0.0000
vn -0.0000 -1.0000 -0.0000
vn -0.0000 -0.0000 -1.0000
vn -0.0000 -0.0000 1.0000
vn -0.9997 -0.0000 -0.0242
vn -0.0000 -0.9825 0.1862
vn -0.0000 -0.9992 -0.0410
vn -0.0000 -0.9629 -0.2698
vn -0.0000 0.9665 -0.2566
vn -0.0000 -0.9672 0.2542
vn 0.9997 -0.0000 0.0242
vn -0.0000 0.9820 -0.1889
vn -0.0000 0.9985 0.0551
vn -0.0000 0.9626 0.2710
vt 0.530382 0.555559
vt 0.483365 0.555559
vt 0.483365 0.544734
vt 0.530382 0.544734
vt 0.925578 0.544734
vt 0.925578 0.497717
vt 0.936403 0.497717
vt 0.936403 0.544734
vt 0.565645 0.997754
vt 0.565645 0.950739
vt 0.577399 0.950739
vt 0.577399 0.997754
vt 0.565645 0.903724
vt 0.565645 0.856709
vt 0.577399 0.856709
vt 0.577399 0.903724
vt 0.010078 0.125364
vt 0.010078 0.172381
vt -0.002245 0.148873
vt 0.903795 0.137118
vt 0.892970 0.137118
vt 0.892970 0.125364
vt 0.903795 0.125364
vt 0.851452 0.137119
vt 0.851452 0.125364
vt 0.830672 0.160627
vt 0.830672 0.148873
vt 0.851452 0.148873
vt 0.851452 0.160627
vt 0.830672 0.137119
vt 0.830672 0.172381
vt 0.786491 0.172381
vt 0.786491 0.160627
vt 0.786491 0.148873
vt 0.786491 0.137119
vt 0.884060 0.544734
vt 0.884060 0.497717
vt 0.851452 0.172381
vt 0.530382 0.597077
vt 0.483365 0.597077
vt 0.530382 0.997754
vt 0.483365 0.997754
vt 0.483365 0.985431
vt 0.530382 0.985431
vt 0.483383 0.544734
vt 0.483383 0.497717
vt 0.495706 0.497717
vt 0.495706 0.544734
vt 0.463098 0.137119
vt 0.450775 0.137119
vt 0.450775 0.125364
vt 0.463098 0.125364
vt 0.483365 0.935888
vt 0.530382 0.935888
vt 0.377652 0.125364
vt 0.377652 0.172381
vt 0.333470 0.172381
vt 0.333470 0.125364
vt 0.545249 0.497717
vt 0.545249 0.544734
vt 0.530382 0.950739
vt 0.542136 0.950739
vt 0.542136 0.997754
vt 0.553891 0.997754
vt 0.553891 0.950739
vt 0.553891 0.903724
vt 0.553891 0.856709
vt 0.542136 0.903724
vt 0.542136 0.856709
vt 0.512641 0.137119
vt 0.512641 0.125364
vt 0.483365 0.890245
vt 0.530382 0.890245
vt 0.892970 0.160627
vt 0.892970 0.172381
vt 0.590892 0.497717
vt 0.590892 0.544734
vt 0.903795 0.160627
vt 0.892970 0.148873
vt 0.903795 0.148873
vt -0.002245 0.137119
vt 0.530382 0.903724
vt 0.530382 0.856709
vt 0.450775 0.148873
vt 0.439950 0.172381
vt 0.439950 0.125364
vt 0.903795 0.172381
vt 0.558284 0.137119
vt 0.558284 0.125364
vt 0.530382 0.864046
vt 0.483365 0.864046
vt 0.483365 0.821823
vt 0.530382 0.821823
vt 0.463098 0.160627
vt 0.450775 0.160627
vt 0.463098 0.148873
vt 0.617091 0.544734
vt 0.617091 0.497717
vt 0.659314 0.497717
vt 0.659314 0.544734
vt 0.195678 0.172381
vt 0.173686 0.172381
vt 0.173686 0.125364
vt 0.195678 0.125364
vt -0.002245 0.125364
vt -0.002245 0.160627
vt -0.002245 0.172381
vt 0.584483 0.137119
vt 0.584483 0.125364
vt 0.483365 0.799831
vt 0.530382 0.799831
vt 0.284253 0.172381
vt 0.284253 0.125364
vt 0.681306 0.497717
vt 0.681306 0.544734
vt 0.463098 0.172381
vt 0.450775 0.172381
vt 0.131463 0.172381
vt 0.105264 0.172381
vt 0.105264 0.125364
vt 0.131463 0.125364
vt 0.398432 0.125364
vt 0.398432 0.172381
vt -0.002245 0.544734
vt -0.002245 0.495191
vt 0.483383 0.495191
vt 0.241461 0.172381
vt 0.241461 0.125364
vt 0.512641 0.160627
vt 0.512641 0.148873
vt 0.648698 0.137119
vt 0.626706 0.137119
vt 0.626706 0.125364
vt 0.648698 0.125364
vt 0.483365 0.754048
vt 0.530382 0.754048
vt 0.727089 0.497717
vt 0.727089 0.544734
vt 0.000000 0.000000
vt 0.512641 0.172381
vt 0.558284 0.172381
vt 0.558284 0.160627
vt 0.694481 0.137119
vt 0.694481 0.125364
vt 0.483365 0.711255
vt 0.530382 0.711255
vt 0.648698 0.160627
vt 0.626706 0.160627
vt 0.626706 0.148873
vt 0.648698 0.148873
vt 0.769882 0.497717
vt 0.769882 0.544734
vt 0.584483 0.148873
vt 0.558284 0.148873
vt 0.584483 0.160627
vt 0.584483 0.172381
vt 0.059621 0.172381
vt 0.059621 0.125364
vt 0.737274 0.137119
vt 0.737274 0.125364
vt 0.483365 0.662039
vt 0.530382 0.662039
vt 0.819098 0.497717
vt 0.819098 0.544734
vt 0.648698 0.172381
vt 0.626706 0.172381
vt 0.502073 0.347296
vt -0.002245 0.346678
vt 0.009986 0.303225
vt 0.514479 0.303225
vt 0.786491 0.125364
vt 0.483365 0.617857
vt 0.530382 0.617857
vt 0.863280 0.497717
vt 0.863280 0.544734
vt 0.484271 0.014000
vt 0.484271 0.025754
vt -0.002245 0.025754
vt -0.002245 0.014000
vt 0.694481 0.172381
vt 0.694481 0.160627
vt 0.737274 0.172381
vt 0.737274 0.160627
vt 0.830672 0.125364
vt 0.969171 0.002245
vt 0.969171 0.014000
vt 0.483776 0.014000
vt 0.483776 0.002245
vt 0.737274 0.148873
vt 0.494208 0.497717
vt 0.483383 0.497717
vt 0.483383 0.450700
vt 0.494208 0.450700
vt 0.927994 0.398630
vt 0.938820 0.398630
vt 0.938820 0.445647
vt 0.927994 0.445647
vt 0.565645 0.903724
vt 0.577399 0.903724
vt 0.577399 0.950739
vt 0.565645 0.950739
vt 0.565645 0.809694
vt 0.577399 0.809694
vt 0.577399 0.856709
vt 0.565645 0.856709
vt -0.002245 0.101856
vt 0.010078 0.078347
vt 0.903795 0.113610
vt 0.892970 0.113610
vt 0.851452 0.113610
vt 0.830672 0.090101
vt 0.851452 0.090101
vt 0.851452 0.101856
vt 0.830672 0.101856
vt 0.830672 0.113610
vt 0.830672 0.078347
vt 0.786491 0.090101
vt 0.786491 0.078347
vt 0.886477 0.398630
vt 0.886477 0.445647
vt 0.851452 0.078347
vt 0.535725 0.497717
vt 0.535725 0.450700
vt 0.936403 0.497717
vt 0.924080 0.497717
vt 0.924080 0.450700
vt 0.936403 0.450700
vt 0.485799 0.398630
vt 0.498123 0.398630
vt 0.498123 0.445647
vt 0.485799 0.445647
vt 0.463098 0.113610
vt 0.450775 0.113610
vt 0.874536 0.497717
vt 0.874536 0.450700
vt 0.059621 0.078347
vt 0.104762 0.078347
vt 0.104762 0.125364
vt 0.547666 0.398630
vt 0.547666 0.445647
vt 0.530382 0.903724
vt 0.542136 0.903724
vt 0.542136 0.950739
vt 0.530382 0.950739
vt 0.553891 0.903724
vt 0.553891 0.950739
vt 0.553891 0.809694
vt 0.553891 0.856709
vt 0.542136 0.809694
vt 0.542136 0.856709
vt 0.512641 0.113610
vt 0.829395 0.497717
vt 0.829395 0.450700
vt 0.892970 0.078347
vt 0.892970 0.090101
vt 0.592807 0.398630
vt 0.592807 0.445647
vt 0.903795 0.090101
vt 0.903795 0.101856
vt 0.892970 0.101856
vt -0.002245 0.113610
vt 0.530382 0.809694
vt 0.530382 0.856709
vt 0.450775 0.101856
vt 0.439950 0.078347
vt 0.903795 0.078347
vt 0.557783 0.113610
vt 0.557783 0.125364
vt 0.760472 0.497717
vt 0.760472 0.450700
vt 0.463098 0.090101
vt 0.463098 0.101856
vt 0.450775 0.090101
vt 0.661730 0.398630
vt 0.661730 0.445647
vt 0.333470 0.078347
vt 0.377652 0.078347
vt -0.002245 0.090101
vt -0.002245 0.078347
vt 0.626706 0.113610
vt 0.746901 0.497717
vt 0.746901 0.450700
vt 0.306680 0.078347
vt 0.306680 0.125364
vt 0.675301 0.398630
vt 0.675301 0.445647
vt 0.463098 0.078347
vt 0.450775 0.078347
vt 0.225795 0.078347
vt 0.264334 0.078347
vt 0.264334 0.125364
vt 0.225795 0.125364
vt 0.512641 0.101856
vt 0.173686 0.078347
vt 0.187256 0.078347
vt 0.187256 0.125364
vt 0.640276 0.113610
vt 0.640276 0.125364
vt 0.708362 0.497717
vt 0.669823 0.497717
vt 0.669823 0.450700
vt 0.708362 0.450700
vt 0.713840 0.398630
vt 0.752379 0.398630
vt 0.752379 0.445647
vt 0.713840 0.445647
vt 0.557783 0.090101
vt 0.557783 0.101856
vt 0.512641 0.090101
vt 0.512641 0.078347
vt 0.557783 0.078347
vt 0.996632 0.054839
vt 0.512400 0.054839
vt 0.512400 0.043084
vt 0.996632 0.043084
vt 0.678815 0.113610
vt 0.678815 0.125364
vt 0.627477 0.497717
vt 0.627477 0.450700
vt 0.640276 0.090101
vt 0.640276 0.101856
vt 0.626706 0.101856
vt 0.626706 0.090101
vt 0.794725 0.398630
vt 0.794725 0.445647
vt 0.626706 0.078347
vt 0.759701 0.113610
vt 0.759701 0.125364
vt 0.717354 0.125364
vt 0.717354 0.113610
vt 0.600687 0.497717
vt 0.600687 0.450700
vt 0.821515 0.398630
vt 0.821515 0.445647
vt 0.640276 0.078347
vt 0.398432 0.078347
vt 0.678815 0.101856
vt 0.786491 0.113610
vt 0.556505 0.497717
vt 0.556505 0.450700
vt 0.865697 0.398630
vt 0.865697 0.445647
vt 0.678815 0.078347
vt 0.678815 0.090101
vt 0.759701 0.078347
vt 0.759701 0.090101
vt 0.717354 0.090101
vt 0.717354 0.078347
vt 0.492274 0.215768
vt 0.500356 0.257790
vt 0.006099 0.259154
vt -0.002245 0.215768
vt 0.759701 0.101856
vt 0.786491 0.101856
vt 0.694481 0.148873
vt 0.717354 0.101856
vt 0.971427 0.347296
vt 0.971427 0.388814
vt 0.485799 0.388814
vt 0.485799 0.347296
vt 0.986377 0.207634
vt 0.500640 0.207634
vt 0.500356 0.195883
vt 0.986093 0.195883
vt 0.485799 0.396472
vt 0.483782 0.445647
vt -0.002245 0.445647
vt -0.000510 0.403336
vt 0.986381 0.172381
vt 0.986097 0.184132
vt 0.500356 0.184132
vt 0.500640 0.172381
vt 0.483492 0.002249
vt 0.483776 0.014000
vt -0.001961 0.014000
vt -0.002245 0.002249
vt 0.985984 0.217637
vt 0.985984 0.259154
vt 0.500356 0.259154
vt 0.500356 0.217637
vt 0.500356 0.173746
vt 0.492274 0.215768
vt -0.002246 0.215768
vt 0.006099 0.172381
vt 0.970722 0.014000
vt 0.970722 0.025754
vt 0.484271 0.025754
vt 0.484271 0.014000
vt 0.483782 0.347296
vt 0.485799 0.396471
vt -0.000510 0.389607
vt -0.002246 0.347296
vt 0.997755 0.066593
vt 0.997755 0.078347
vt 0.512400 0.078347
vt 0.512400 0.066593
vt 0.996751 0.066593
vt 0.512400 0.054839
vt 0.996751 0.054839
vt 0.514478 0.303225
vt 0.009986 0.303225
vt -0.002245 0.259773
vt 0.502073 0.259154
vt 0.986097 0.195883
vt 0.500356 0.195883
vt 0.500640 0.184132
vt 0.986381 0.184132
vt 0.483383 0.495191
vt -0.002245 0.445647
vt 0.483383 0.445647
s 0
usemtl Material
f 9/1/1 10/2/1 4/3/1 2/4/1
f 11/5/2 12/6/2 6/7/2 8/8/2
f 94/9/3 82/10/3 2/11/3 4/12/3
f 97/13/4 85/14/4 5/15/4 7/16/4
f 19/17/5 15/18/5 90/19/5
f 92/20/6 79/21/6 11/22/6 8/23/6
f 16/24/6 88/25/6 11/22/6 79/21/6
f 26/26/6 25/27/6 17/28/6 18/29/6
f 25/27/6 24/30/6 16/24/6 17/28/6
f 76/31/6 69/32/6 33/33/6 26/26/6
f 25/27/6 28/34/6 27/35/6 24/30/6
f 88/36/2 89/37/2 12/6/2 11/5/2
f 76/31/6 26/26/6 18/29/6 87/38/6
f 86/39/1 87/40/1 10/2/1 9/1/1
f 1/41/1 3/42/1 13/43/1 19/44/1
f 7/45/2 5/46/2 15/47/2 14/48/2
f 72/49/6 97/50/6 7/51/6 14/52/6
f 19/44/1 13/43/1 21/53/1 20/54/1
f 75/55/5 78/56/5 71/57/5 68/58/5
f 14/48/2 15/47/2 23/59/2 22/60/2
f 8/41/3 6/61/3 84/62/3 92/63/3
f 93/64/3 83/65/3 82/10/3 94/9/3
f 96/66/4 90/67/4 85/14/4 97/13/4
f 92/63/3 84/62/3 83/65/3 93/64/3
f 95/68/4 91/69/4 90/67/4 96/66/4
f 65/70/6 72/49/6 14/52/6 22/71/6
f 20/54/1 21/53/1 30/72/1 29/73/1
f 87/38/6 18/29/6 81/74/6 10/75/6
f 22/60/2 23/59/2 32/76/2 31/77/2
f 94/78/6 81/74/6 80/79/6 93/80/6
f 19/17/5 90/19/5 91/81/5
f 3/82/4 1/83/4 91/69/4 95/68/4
f 83/84/5 12/85/5 9/86/5
f 4/87/6 10/75/6 81/74/6 94/78/6
f 93/80/6 80/79/6 79/21/6 92/20/6
f 58/88/6 65/70/6 22/71/6 31/89/6
f 205/90/1 202/91/1 38/92/1 37/93/1
f 74/94/6 95/95/6 96/84/6 73/96/6
f 203/97/2 204/98/2 40/99/2 39/100/2
f 47/101/5 40/102/5 37/103/5 44/104/5
f 18/29/6 17/28/6 80/79/6 81/74/6
f 19/17/5 91/81/5 1/105/5
f 85/106/5 15/18/5 5/107/5
f 206/108/6 58/88/6 31/89/6 203/109/6
f 37/93/1 38/92/1 45/110/1 44/111/1
f 64/112/5 61/113/5 68/58/5 71/57/5
f 39/100/2 40/99/2 47/114/2 46/115/2
f 13/116/6 3/117/6 95/95/6 74/94/6
f 73/96/6 96/84/6 97/50/6 72/49/6
f 204/118/5 32/119/5 29/120/5 205/121/5
f 78/56/5 75/55/5 86/122/5 89/123/5
f 73/45/7 171/124/7 164/125/7 66/126/7
f 64/112/5 56/127/5 53/128/5 61/113/5
f 67/129/6 74/94/6 73/96/6 66/130/6
f 48/131/6 51/132/6 39/133/6 46/134/6
f 44/111/1 45/110/1 54/135/1 53/136/1
f 204/118/5 205/121/5 37/103/5 40/102/5
f 46/115/2 47/114/2 56/137/2 55/138/2
f 60/139/1 67/139/1 147/139/1 196/139/1
f 21/140/6 13/116/6 74/94/6 67/129/6
f 30/141/6 21/140/6 67/129/6 60/142/6
f 41/143/6 48/131/6 46/134/6 55/144/6
f 53/136/1 54/135/1 62/145/1 61/146/1
f 50/147/6 57/148/6 52/149/6 49/150/6
f 55/138/2 56/137/2 64/151/2 63/152/2
f 82/50/5 9/86/5 2/51/5
f 207/153/6 59/154/6 58/88/6 206/108/6
f 47/101/5 44/104/5 53/128/5 56/127/5
f 208/155/6 60/142/6 59/154/6 207/153/6
f 202/156/6 30/141/6 60/142/6 208/155/6
f 23/157/5 15/18/5 19/17/5 20/158/5
f 34/159/6 41/143/6 55/144/6 63/160/6
f 61/146/1 62/145/1 69/161/1 68/162/1
f 63/152/2 64/151/2 71/163/2 70/164/2
f 83/84/5 9/86/5 82/50/5
f 49/150/6 52/149/6 51/132/6 48/131/6
f 45/165/6 38/166/6 57/148/6 50/147/6
f 84/95/5 12/85/5 83/84/5
f 12/85/5 84/95/5 6/117/5
f 49/167/1 163/168/1 156/169/1 42/170/1
f 34/159/6 63/160/6 70/171/6 27/35/6
f 68/162/1 69/161/1 76/172/1 75/173/1
f 70/164/2 71/163/2 78/174/2 77/175/2
f 43/176/8 42/177/8 125/178/8 130/179/8
f 54/180/6 45/165/6 50/147/6 43/181/6
f 89/123/5 86/122/5 9/86/5 12/85/5
f 62/182/6 54/180/6 43/181/6 36/183/6
f 24/30/6 27/35/6 70/171/6 77/184/6
f 75/173/1 76/172/1 87/40/1 86/39/1
f 77/175/2 78/174/2 89/37/2 88/36/2
f 35/185/9 34/186/9 138/187/9 139/188/9
f 36/183/6 35/189/6 28/34/6 33/33/6
f 62/182/6 36/183/6 33/33/6 69/32/6
f 24/30/6 77/184/6 88/25/6 16/24/6
f 106/190/1 99/191/1 101/192/1 107/193/1
f 108/194/2 105/195/2 103/196/2 109/197/2
f 191/198/3 101/199/3 99/200/3 179/201/3
f 194/202/4 104/203/4 102/204/4 182/205/4
f 116/17/6 187/206/6 112/207/6
f 189/208/5 105/23/5 108/22/5 176/209/5
f 113/210/5 176/209/5 108/22/5 185/25/5
f 123/211/5 115/212/5 114/213/5 122/214/5
f 122/214/5 114/213/5 113/210/5 121/215/5
f 173/216/5 123/211/5 130/217/5 166/218/5
f 185/219/2 108/194/2 109/197/2 186/220/2
f 173/216/5 184/221/5 115/212/5 123/211/5
f 183/222/1 106/190/1 107/193/1 184/223/1
f 98/224/1 116/225/1 110/226/1 100/227/1
f 104/228/2 111/229/2 112/230/2 102/231/2
f 169/232/5 111/52/5 104/51/5 194/233/5
f 116/225/1 117/234/1 118/235/1 110/226/1
f 120/236/6 129/237/6 126/238/6 117/158/6
f 111/229/2 119/239/2 120/240/2 112/230/2
f 105/241/3 189/242/3 181/243/3 103/244/3
f 190/245/3 191/198/3 179/201/3 180/246/3
f 193/247/4 194/202/4 182/205/4 187/248/4
f 189/242/3 190/245/3 180/246/3 181/243/3
f 192/249/4 193/247/4 187/248/4 188/250/4
f 162/251/5 119/71/5 111/52/5 169/232/5
f 117/234/1 126/252/1 127/253/1 118/235/1
f 184/221/5 107/254/5 178/255/5 115/212/5
f 119/239/2 128/256/2 129/257/2 120/240/2
f 191/258/5 190/259/5 177/260/5 178/255/5
f 116/17/6 188/261/6 187/206/6
f 100/262/4 192/249/4 188/250/4 98/263/4
f 180/264/6 106/86/6 109/265/6
f 101/266/5 191/258/5 178/255/5 107/254/5
f 190/259/5 189/208/5 176/209/5 177/260/5
f 114/213/5 177/260/5 176/209/5 113/210/5
f 155/267/5 128/268/5 119/71/5 162/251/5
f 126/252/1 134/269/1 135/270/1 127/253/1
f 171/271/5 170/272/5 193/264/5 192/273/5
f 128/256/2 136/274/2 137/275/2 129/257/2
f 168/276/6 175/277/6 172/55/6 165/58/6
f 116/17/6 98/105/6 188/261/6
f 182/278/6 102/279/6 112/207/6
f 148/280/5 136/133/5 128/268/5 155/267/5
f 134/269/1 141/281/1 142/282/1 135/270/1
f 161/283/6 168/276/6 165/58/6 158/284/6
f 136/274/2 143/285/2 144/286/2 137/275/2
f 110/287/5 171/271/5 192/273/5 100/288/5
f 170/272/5 169/232/5 194/233/5 193/264/5
f 199/289/6 153/290/6 150/291/6 200/292/6
f 120/236/6 117/158/6 116/17/6 112/207/6
f 163/293/5 162/251/5 169/232/5 170/272/5
f 137/294/6 144/295/6 141/296/6 134/103/6
f 145/297/5 143/298/5 136/133/5 148/280/5
f 200/299/1 150/300/1 151/301/1 197/302/1
f 198/303/2 152/304/2 153/305/2 199/306/2
f 157/307/5 156/308/5 163/293/5 164/309/5
f 129/237/6 137/294/6 134/103/6 126/238/6
f 118/310/5 164/309/5 171/271/5 110/287/5
f 180/264/6 179/233/6 106/86/6
f 127/311/5 157/307/5 164/309/5 118/310/5
f 48/312/10 162/313/10 163/314/10 49/315/10
f 201/316/5 198/317/5 143/298/5 145/297/5
f 150/300/1 158/318/1 159/319/1 151/301/1
f 147/320/5 146/321/5 149/322/5 154/323/5
f 152/304/2 160/324/2 161/325/2 153/305/2
f 179/233/6 99/51/6 106/86/6
f 199/289/6 200/292/6 141/296/6 144/295/6
f 154/323/5 149/322/5 156/308/5 157/307/5
f 135/326/5 154/323/5 157/307/5 127/311/5
f 161/283/6 158/284/6 150/291/6 153/290/6
f 131/327/5 160/328/5 152/329/5 138/330/5
f 158/318/1 165/331/1 166/332/1 159/319/1
f 160/324/2 167/333/2 168/334/2 161/325/2
f 146/321/5 145/297/5 148/280/5 149/322/5
f 142/335/5 147/320/5 154/323/5 135/326/5
f 109/265/6 103/288/6 181/273/6
f 175/277/6 186/336/6 183/122/6 172/55/6
f 195/337/5 201/316/5 145/297/5 146/321/5
f 131/327/5 124/338/5 167/171/5 160/328/5
f 165/331/1 172/339/1 173/340/1 166/332/1
f 167/333/2 174/341/2 175/342/2 168/334/2
f 66/139/2 59/139/2 195/139/2 146/139/2
f 197/343/5 196/344/5 147/320/5 142/335/5
f 186/336/6 109/265/6 106/86/6 183/122/6
f 159/345/5 133/346/5 140/347/5 151/348/5
f 121/215/5 174/184/5 167/171/5 124/338/5
f 172/339/1 183/222/1 184/223/1 173/340/1
f 36/349/1 43/350/1 130/351/1 123/352/1
f 174/341/2 185/219/2 186/220/2 175/342/2
f 132/353/5 125/354/5 124/338/5 131/327/5
f 133/346/5 130/217/5 125/354/5 132/353/5
f 159/345/5 166/218/5 130/217/5 133/346/5
f 121/215/5 113/210/5 185/25/5 174/184/5
f 58/88/6 59/154/6 66/130/6 65/70/6
f 57/148/6 208/155/6 207/153/6 52/149/6
f 41/143/6 34/159/6 35/189/6 42/355/6
f 151/348/5 140/347/5 196/344/5 197/343/5
f 140/347/5 139/356/5 195/337/5 196/344/5
f 139/356/5 138/330/5 201/316/5 195/337/5
f 187/206/6 182/278/6 112/207/6
f 181/273/6 180/264/6 109/265/6
f 138/330/5 152/329/5 198/317/5 201/316/5
f 143/285/2 198/303/2 199/306/2 144/286/2
f 141/281/1 200/299/1 197/302/1 142/282/1
f 49/150/6 42/355/6 43/181/6 50/147/6
f 28/34/6 25/27/6 26/26/6 33/33/6
f 80/357/7 17/358/7 115/359/7 178/360/7
f 72/361/4 170/362/4 171/363/4 73/364/4
f 148/280/5 155/267/5 156/308/5 149/322/5
f 59/139/11 60/139/11 196/139/11 195/139/11
f 67/139/12 66/139/12 146/139/12 147/139/12
f 28/365/1 35/366/1 139/367/1 132/368/1
f 90/19/5 15/18/5 85/106/5
f 52/149/6 207/153/6 206/108/6 51/132/6
f 23/157/5 20/158/5 29/120/5 32/119/5
f 51/132/6 206/108/6 203/109/6 39/133/6
f 31/77/2 32/76/2 204/98/2 203/97/2
f 29/73/1 30/72/1 202/91/1 205/90/1
f 125/354/5 122/214/5 121/215/5 124/338/5
f 79/369/3 80/370/3 178/371/3 177/372/3
f 17/373/4 16/374/4 114/375/4 115/376/4
f 16/377/13 79/378/13 177/379/13 114/380/13
f 42/381/2 35/382/2 122/383/2 125/384/2
f 35/385/14 36/386/14 123/387/14 122/388/14
f 34/389/2 27/390/2 131/391/2 138/392/2
f 27/393/15 28/394/15 132/395/15 131/396/15
f 140/347/5 133/346/5 132/353/5 139/367/5
f 202/156/6 208/155/6 57/148/6 38/166/6
f 42/397/16 156/396/16 155/398/16 41/399/16
f 41/400/2 155/401/2 162/402/2 48/403/2
f 66/404/3 164/405/3 163/406/3 65/407/3
f 65/408/13 163/125/13 170/409/13 72/410/13
